<svg xmlns="http://www.w3.org/2000/svg" xmlns:xlink="http://www.w3.org/1999/xlink" width="262" height="176" viewBox="0 0 262 176">
  <defs>
    <filter id="Caminho_9606" x="91.05" y="0" width="170.95" height="170.235" filterUnits="userSpaceOnUse">
      <feOffset dx="8" dy="3" input="SourceAlpha"/>
      <feGaussianBlur stdDeviation="3" result="blur"/>
      <feFlood flood-opacity="0.161"/>
      <feComposite operator="in" in2="blur"/>
      <feComposite in="SourceGraphic"/>
    </filter>
  </defs>
  <g id="Grupo_1" data-name="Grupo 1" transform="translate(-559 -243.971)">
    <g id="Grupo_183" data-name="Grupo 183" transform="translate(575.049 249.971)">
      <g transform="matrix(1, 0, 0, 1, -16.05, -6)" filter="url(#Caminho_9606)">
        <path id="Caminho_9606-2" data-name="Caminho 9606" d="M76.245,0H76.7a76.118,76.118,0,1,1,0,152.235h-.459A76.118,76.118,0,1,1,76.245,0Z" transform="translate(92.05 6)" fill="#030303"/>
      </g>
      <rect id="Retângulo_130" data-name="Retângulo 130" width="61.082" height="60.591" rx="30.296" transform="translate(122.124 45.798)" fill="#efefef"/>
      <path id="Subtração_1" data-name="Subtração 1" d="M152.459,152.207H0V0H152.459V152.206ZM79.393,45.845a30.258,30.258,0,0,0,0,60.516h.56a30.258,30.258,0,1,0,0-60.516Z" transform="translate(0 0.073)" fill="#ff4d00"/>
    </g>
    <text id="DISCO" transform="translate(559 411.971)" fill="#030303" font-size="41" font-family="RoobertTRIAL-Heavy, Roobert TRIAL" font-weight="800"><tspan x="0" y="0">DISCO</tspan></text>
  </g>
</svg>
